<svg viewBox="0 0 24 24" fill="currentColor" xmlns="http://www.w3.org/2000/svg">
  <!-- Base: AppIcon (idle — >< squinting eyes)
       Preserve the core silhouette: squat body, nub arms, stubby legs, cutout eyes.
       Add themed accessories ON TOP — hats, bows, held items, surface details.
       Do NOT change basic body proportions or remove eye cutouts. -->

  <!-- Body with eye cutouts -->
  <path
    fillRule="evenodd"
    d="M9 4 L15 4 A4 4 0 0 1 19 8 L19 12 A4 4 0 0 1 15 16 L9 16 A4 4 0 0 1 5 12 L5 8 A4 4 0 0 1 9 4 Z M8.5 8 L10.5 10 L8.5 12 L9.5 12 L11.5 10 L9.5 8 Z M15.5 8 L13.5 10 L15.5 12 L14.5 12 L12.5 10 L14.5 8 Z"
  />
  <!-- Left arm -->
  <path d="M1.8 9 L3.2 9 A0.8 0.8 0 0 1 4 9.8 L4 12.2 A0.8 0.8 0 0 1 3.2 13 L1.8 13 A0.8 0.8 0 0 1 1 12.2 L1 9.8 A0.8 0.8 0 0 1 1.8 9 Z" />
  <!-- Right arm -->
  <path d="M20.8 9 L22.2 9 A0.8 0.8 0 0 1 23 9.8 L23 12.2 A0.8 0.8 0 0 1 22.2 13 L20.8 13 A0.8 0.8 0 0 1 20 12.2 L20 9.8 A0.8 0.8 0 0 1 20.8 9 Z" />
  <!-- Left leg -->
  <rect x="7.2" y="17" width="3.5" height="4" rx="1.2" />
  <!-- Right leg -->
  <rect x="13.3" y="17" width="3.5" height="4" rx="1.2" />
</svg>
