<svg xmlns="http://www.w3.org/2000/svg" width="256" height="256" viewBox="0 0 40 40">
  <!-- Background fills entire icon -->
  <rect width="40" height="40" rx="4" fill="#1c1c1c"/>

  <!-- Rounded terminal window border -->
  <rect x="0.75" y="0.75" width="38.5" height="38.5" rx="4" fill="none" stroke="#A0A0A0" stroke-opacity="0.3" stroke-width="1.2"/>

  <!-- Top bar line -->
  <line x1="5" y1="6" x2="35" y2="6" stroke="#A0A0A0" stroke-opacity="0.25" stroke-width="0.8" stroke-linecap="round"/>

  <!-- Bottom bar line -->
  <line x1="5" y1="34" x2="35" y2="34" stroke="#A0A0A0" stroke-opacity="0.25" stroke-width="0.8" stroke-linecap="round"/>

  <!-- Chevron prompt -->
  <path d="M4.2,17.2 L6.4,17.2 L9.2,20.5 L6.4,23.8 L4.2,23.8 L7,20.5 Z" fill="#E0E0E0"/>

  <!-- D letter -->
  <g transform="translate(11.8,24.0) scale(0.00550,-0.00550)">
    <path d="M1073,670 Q1073,518 1035.5,394 Q998,270 918.5,182.5 Q839,95 715,47.5 Q591,0 418,0 L86,0 L86,1307 L473,1307 Q623,1307 735.5,1269.5 Q848,1232 923,1154 Q998,1076 1035.5,956 Q1073,836 1073,670 Z M809,654 Q809,760 792,843 Q775,926 734.5,983.5 Q694,1041 626,1071 Q558,1101 457,1101 L332,1101 L332,206 L440,206 Q621,206 715,314 Q809,422 809,654 Z"
          fill="#F0F0F0" stroke="#F0F0F0" stroke-width="25" stroke-linejoin="round"/>
  </g>

  <!-- C letter -->
  <g transform="translate(18.6,24.0) scale(0.00550,-0.00550)">
    <path d="M1004,51 Q917,16 835.5,-1 Q754,-18 666,-18 Q525,-18 416.5,23.5 Q308,65 233.5,147 Q159,229 120.5,350.5 Q82,472 82,633 Q82,798 124,926.5 Q166,1055 244,1143.5 Q322,1232 433.5,1278.5 Q545,1325 684,1325 Q729,1325 768.5,1323 Q808,1321 846,1315.5 Q884,1310 923,1301 Q962,1292 1004,1278 L1004,1034 Q919,1074 842,1091 Q765,1108 702,1108 Q609,1108 543,1074.5 Q477,1041 434.5,980.5 Q392,920 372,836.5 Q352,753 352,653 Q352,547 372.5,463.5 Q393,380 436,322 Q479,264 546,233.5 Q613,203 705,203 Q738,203 776.5,209.5 Q815,216 854.5,226.5 Q894,237 932.5,251.5 Q971,266 1004,281 Z"
          fill="#E0E0E0" stroke="#E0E0E0" stroke-width="25" stroke-linejoin="round"/>
  </g>

  <!-- Cursor block -->
  <rect x="29" y="15" width="6" height="11" rx="0.5" fill="#E0E0E0" fill-opacity="0.6"/>
</svg>
