<svg width="48" height="48" viewBox="0 0 40 40" fill="none" xmlns="http://www.w3.org/2000/svg">
  <rect x="1" y="1" width="38" height="38" rx="7" fill="#f5efe8" stroke="rgba(224,120,64,0.35)" stroke-width="1.5"/>
  <line x1="6" y1="6.5" x2="34" y2="6.5" stroke="rgba(224,120,64,0.3)" stroke-width="1" stroke-linecap="round"/>
  <line x1="6" y1="33.5" x2="34" y2="33.5" stroke="rgba(224,120,64,0.3)" stroke-width="1" stroke-linecap="round"/>
  <polygon points="5.2,17.2 7.4,17.2 10.2,20.5 7.4,23.8 5.2,23.8 8,20.5" fill="#e07840"/>
  <g transform="translate(12.8, 24.0) scale(0.00550, -0.00550)" fill="#2d2418" stroke="#2d2418" stroke-width="25" stroke-linejoin="round">
    <path d="M1073 670Q1073 518 1035.5 394.0Q998 270 918.5 182.5Q839 95 715.0 47.5Q591 0 418 0H86V1307H473Q623 1307 735.5 1269.5Q848 1232 923.0 1154.0Q998 1076 1035.5 956.0Q1073 836 1073 670ZM809 654Q809 760 792.0 843.0Q775 926 734.5 983.5Q694 1041 626.0 1071.0Q558 1101 457 1101H332V206H440Q621 206 715.0 314.0Q809 422 809 654Z"/>
  </g>
  <g transform="translate(19.6, 24.0) scale(0.00550, -0.00550)" fill="#e07840" stroke="#e07840" stroke-width="25" stroke-linejoin="round">
    <path d="M1004 51Q917 16 835.5 -1.0Q754 -18 666 -18Q525 -18 416.5 23.5Q308 65 233.5 147.0Q159 229 120.5 350.5Q82 472 82 633Q82 798 124.0 926.5Q166 1055 244.0 1143.5Q322 1232 433.5 1278.5Q545 1325 684 1325Q729 1325 768.5 1323.0Q808 1321 846.0 1315.5Q884 1310 923.0 1301.0Q962 1292 1004 1278V1034Q919 1074 842.0 1091.0Q765 1108 702 1108Q609 1108 543.0 1074.5Q477 1041 434.5 980.5Q392 920 372.0 836.5Q352 753 352 653Q352 547 372.5 463.5Q393 380 436.0 322.0Q479 264 546.0 233.5Q613 203 705 203Q738 203 776.5 209.5Q815 216 854.5 226.5Q894 237 932.5 251.5Q971 266 1004 281Z"/>
  </g>
  <rect x="29.5" y="15" width="6" height="11" rx="0.5" fill="#e07840" opacity="0.65"/>
</svg>
